<svg version="1.1" id="Capa_1" xmlns="http://www.w3.org/2000/svg" x="0" y="0" viewBox="0 0 512 512" xml:space="preserve"><style>.st0{fill:#909293}.st4{fill:#7f8284}.st5{fill:#32ba7c}.st6{fill:#bdc3c7}</style><g id="Page-1"><g id="_x30_07---Stopwatch" transform="translate(-1)"><path id="Shape" class="st0" d="M455.6 300.1c0 113.6-89.5 206.9-203 211.7s-210.5-80.8-220-194 72-213.7 184.6-227.9c17.6-2.2 35.4-2.2 53 0 40.7 5.1 79.1 21.9 110.3 48.5 9 7.6 17.3 15.9 24.9 24.9 32.5 38.2 50.3 86.7 50.2 136.8z"/><path id="Shape_1_" d="M411.5 300.1c0 84.2-62.4 155.4-145.9 166.3s-162.2-41.7-183.9-123 20.2-166.2 98-198.3 167.4-1.6 209.4 71.4c14.7 25.5 22.4 54.3 22.4 83.6z" fill="#ecf0f1"/><path id="Shape_2_" d="M411.5 300.1c0 59.9-31.9 115.2-83.7 145.2s-115.7 30.1-167.6.2C122.4 379.8 133.4 297 187 243.4s136.5-64.6 202.2-26.8c14.6 25.4 22.3 54.2 22.3 83.5z" fill="#fff"/><path id="Shape_3_" d="M270.2 44.1V90c-17.6-2.2-35.4-2.2-53 0V44.1h53z" fill="#aaa"/><path id="Shape_4_" class="st0" d="M305.6 22.1c0 5.9-2.3 11.5-6.4 15.6s-9.8 6.5-15.6 6.4H204c-12.2 0-22.1-9.9-22.1-22.1S191.8 0 204 0h79.4c12.3 0 22.2 9.9 22.2 22.1z"/><path id="Shape_5_" class="st4" d="M438 130.8l-32.5 32.5c-7.6-9-15.9-17.3-24.9-24.9l32.5-32.5 24.9 24.9z"/><path id="Shape_6_" class="st5" d="M476.9 144.9c-3.3 3.3-7.8 5.2-12.4 5.2s-9.2-1.9-12.4-5.2l-14-14-24.9-24.9-14-14c-6.9-6.9-6.9-18 0-24.9s18-6.9 24.9 0l53 53c3.3 3.3 5.2 7.8 5.2 12.4-.2 4.6-2.1 9.1-5.4 12.4z"/><path id="Shape_7_" class="st5" d="M243.8 167.8c69.3 0 126.9 53.5 132.1 122.6.2 2.5-.6 4.9-2.3 6.8s-4 2.9-6.5 2.9H243.8V167.8z"/><path id="Shape_8_" class="st6" d="M221.4 285.8l9-117.4c.5-7 6.3-12.4 13.3-12.4s12.8 5.4 13.3 12.4l9 117.4h-44.6z"/><path id="Shape_9_" class="st6" d="M243.8 476.7c-97.5 0-176.6-79-176.6-176.6s79-176.6 176.6-176.6 176.6 79 176.6 176.6c-.2 97.5-79.2 176.5-176.6 176.6zm0-335.5c-87.8 0-158.9 71.1-158.9 158.9S156 459 243.8 459s158.9-71.1 158.9-158.9c-.1-87.7-71.2-158.8-158.9-158.9z"/><path id="Shape_10_" class="st4" d="M270.2 300.1c0 14.6-11.9 26.5-26.5 26.5s-26.5-11.9-26.5-26.5c0-5 1.4-10 4.1-14.2v-.1c4.9-7.6 13.3-12.2 22.3-12.2s17.4 4.6 22.3 12.2c2.9 4.3 4.3 9.3 4.3 14.3z"/></g></g></svg>