<svg xmlns="http://www.w3.org/2000/svg" viewBox="0 0 1280.4 1279.4"><path d="M614.7 5.3h47.5c.6 2.3 2.4 1.9 4 1.9 21.8.7 43.5 1.9 65.1 5.6 14.7 2.6 29.4 4.8 44 7.8 16.8 3.6 33.3 8.3 49.9 13.1 11.4 3.4 22.7 7.4 33.9 11.5 14.1 5.2 27.9 10.9 41.6 17.2 12.6 5.8 25.1 11.8 37.2 18.4 4.9 2.7 10 5.1 14.6 8 10 6.2 20.3 12.3 30.2 18.8 10.6 7 21.2 14.1 31.5 21.5 13.7 10 26.9 20.5 39.6 31.6 6.6 5.7 13.3 11.4 19.6 17.5 7 6.7 13.2 14.4 20.5 20.8 7.3 6.5 13.6 14.1 20 21.3 7.1 8 13.9 16.8 20.6 25.2 7.1 8.9 14.1 17.9 20.9 27.1 8.6 11.6 16.4 23.9 24 36.3 10.9 17.8 20.8 36.4 30 55.2 6.5 13.3 12.4 27 17.8 40.8 6.3 16.3 12.5 32.7 17.6 49.4 4.9 15.6 8.2 31.6 12.4 47.5 2.3 8.8 3.2 18 5.4 27 3.5 14.5 3.9 29.4 6.1 44.2 2 12.6 2.5 25.6 2.3 38.4 0 1.5-.2 3.1 1.9 3.5v2c-1.2 1-1.1 2.3-1.1 3.6v37.4c0 1.3-.2 2.7 1.1 3.6v2c-2.4.5-1.9 2.4-1.9 4-.4 15.6-1 31-3.8 46.5-2.5 14.2-2.8 28.6-6.2 42.7-1.8 7-2.3 14.3-4 21.3-3 12.2-6.7 24.3-9.6 36.5-2.2 9.4-5.4 18.6-8.5 27.8-6.4 18.7-13.7 37.2-21.7 55.3-2.5 5.6-5.3 11.2-7.7 16.8-4.5 10.1-10.1 19.7-15.5 29.4-4.8 8.7-9.5 17.4-14.9 25.9-6.7 10.6-13.7 21-20.8 31.4-6.6 9.7-13.6 19.2-20.8 28.4-10 12.6-20.5 24.8-31.3 36.8-11.1 12.3-22.9 23.9-34.8 35.4-8.6 8.3-17.8 16-26.9 23.9-8.5 7.3-17.4 14.1-26.2 21.1-7.6 6.1-15.8 11.7-23.9 17.1-13.3 8.8-26.8 17.5-40.6 25.3-10.4 5.8-20.6 12-31.3 17.1-17.8 8.5-35.8 16.8-54.2 24-17 6.7-34.5 12.4-52 17.7-14.6 4.5-29.3 7.8-44.2 11.4-10 2.5-20.3 3.5-30.4 5.6-15.4 3.4-31.2 3.5-46.8 5.9-12.1 2-24.6 2-37 2.1-27.8.2-55.5.8-83.2-3.6-15-2.4-30.3-2.3-45.3-5.9-10.4-2.6-21.2-3.5-31.7-6.1-14.7-3.9-29.4-7.4-44.1-11.8-17.2-5.2-34-11.5-50.8-17.8-8.1-3.1-16.1-6.7-24-10-5-2.1-9.8-4.4-14.7-6.7-8.9-4.5-17.8-8.9-26.5-13.9-9.2-5.3-18.8-9.9-27.9-15.5-11.7-7.1-23.1-14.8-34.3-22.5-8.4-5.7-16.4-12.3-24.8-18.1-3.5-2.5-6.6-5.3-10-7.7-6.4-4.8-12.3-10.4-18.3-15.7-6-5.4-12-10.6-17.8-16.1-7.2-6.9-14.2-14.1-21.4-21-9.9-9.4-18.5-20.1-27.5-30.4-7.2-8.3-14-17.2-20.7-26.1-7.7-10.3-15.3-20.7-22.6-31.3-9.5-13.9-18.5-28-26.7-42.6-8.8-15.9-17.1-32-24.7-48.5-7-15.5-13.3-31.3-19.2-47.3-5.7-15.7-10.7-31.6-15.3-47.6-4.7-16.7-8.2-33.7-11.9-50.6C12 743.5 11 730.6 9 717.8c-2.6-16.4-3.5-33-3.5-49.7 0-1.7.7-3.9-1.9-4.5v-2c1.2-1 1.1-2.3 1.1-3.6v-37.4c0-1.3.2-2.7-1.1-3.6v-2c2.1-.4 1.9-2 1.9-3.5.3-19.8 1.5-39.6 5.1-59.3 1.6-8.5 1.8-17.4 3.8-25.9 3.3-13.3 5.4-26.9 8.7-40.1 2.9-11.4 5.8-22.9 9.3-34.1 4.3-13.5 8.8-27 14.3-40.1 4.7-11.3 9-22.8 14.1-33.9 5.9-13.1 12.5-25.9 19-38.7 3.8-7.2 7.6-14.5 12.1-21.4 6.6-10.4 13.2-20.9 20-31.2 7.4-11.1 15.3-22 23.4-32.6 4.2-5.4 8.2-10.8 12.7-16 5.4-6.1 9.8-13.1 15.6-18.8 5.3-5.4 9.7-11.4 15.3-16.6 7.5-6.9 14.7-14.4 21.8-21.7 4.5-4.6 9.3-8.5 14-12.9 5.4-5 10.8-9.8 16.6-14.4 6.6-5.5 13.4-10.7 20.2-16.1 6.6-5.3 13-11 20.1-15.5 10.6-6.6 21-13.8 31.6-20.6 14.6-9.3 29.8-17.4 44.7-26.1 7.7-4.5 16.1-7.9 24.2-11.7 13.9-6.5 28-12.6 42.4-18 10.5-4 21.1-7.8 31.9-11.2 15.5-4.8 31.2-8.7 46.9-12.9 7.4-2 15.1-2.8 22.5-4.9 11.7-3.2 23.9-4.2 35.8-5.9 19.3-2.9 38.9-4.4 58.5-4.4 1.8.7 3.9 1.4 4.6-1.2zm287.6 433.8c-.4-2.5-.5-5-1.1-7.3-2.2-9.2-9.8-14.3-15.8-20.6-6.2-6.6-12.8-13-19.3-19.1-4.7-4.4-8.3-10.2-14.1-12.8-11.9-5.4-24.9-4.5-34.6 6.7-6.2 7.2-13.3 13.9-20.1 20.5-11.9 11.5-23.3 23.3-35.2 34.8-10.6 10.3-21 20.9-31.5 31.4-11.2 11.2-22.5 22.4-33.7 33.7-6.4 6.5-12.8 13.2-19.2 19.7-5.3 5.4-10.6 10.7-16.2 15.8-5.3 4.9-10.1 10.1-15.2 15.1-2.5 2.5-4.3 6.8-7.6 7-3.8.1-5.5-4.6-8-7-5.2-5-10.1-10.1-15.2-15.1-5.2-5.1-10.5-9.9-15.5-15.1-4.4-4.7-8.9-9.1-13.6-13.5-5.3-5-9.8-10.6-15.2-15.5-5-4.5-9.6-9.3-14.3-14.1-6.9-7-14-14.1-20.9-21.1-6.7-6.7-13.8-13.3-20.4-20.1-8.8-9-17.7-17.9-26.6-27-9.8-10-20.1-19.6-29.8-29.7-2.1-2.2-4.2-4.9-6.7-6-12.2-5.7-25.9-5.4-36.4 6.8-4.3 4.9-8.9 9.3-13.5 13.9-7 7-14.4 13.7-21 21-9.6 10.7-9.3 25.3.4 36.1 6 6.6 12.6 12.8 18.9 19.1l20.6 20.6 15.4 15.4 15.2 15.2c4.9 4.9 10 9.5 14.6 14.8 4.5 5.1 9.4 9.6 14.1 14.4 5 5 10.1 9.8 15 14.8 6.6 6.9 13.5 13.6 20.2 20.4 6.8 6.9 13.8 13.7 20.8 20.5 7.9 7.6 15.4 15.8 23.4 23.3 2.3 2.1 3.9 4.1.6 7.1-5.7 5.3-11.1 10.9-16.7 16.5-9 9.2-17.9 18.5-27.2 27.7-18.9 18.8-38.1 37.5-56.8 56.4-18.8 18.9-38 37.7-56.4 57-7.9 8.3-16.6 15.9-24.2 24.6-6.2 7.1-6 23.8.1 30.7 2.8 3.3 5.8 6.3 8.7 9.4 4.6 4.9 9.4 9.5 14.2 14.3 3.1 3.1 6.3 6.1 9.3 9.3 4.5 4.8 9 9.6 14.8 12.8 9.4 5.2 25 1 32.1-7.1 5.1-5.8 10.8-11 16.3-16.5 4.5-4.5 8.9-9 13.5-13.5l22.1-22.1 13.5-13.5c7.1-7.1 14.2-14.5 21.3-21.6 6.6-6.6 13.5-13.1 20.1-19.7 7-7 13.7-14.5 20.9-21.2 8.9-8.4 17.4-17.3 26.3-25.9 8.3-8.1 16.7-16.4 24.5-24.9.8-.8 1.8-1.4 2.4-.2 1.5 2.8 4.5 4.2 6.4 6.4 4.3 4.9 9.1 9.2 13.8 13.9 7 7 14.3 13.9 21.1 21.1 5.2 5.5 10.6 10.5 15.9 15.9 4.8 4.8 9.4 9.6 14.3 14.3 5.2 5 10.1 10.1 15.2 15.2 4.9 4.9 10 9.5 14.6 14.7 4.4 5.1 9.4 9.6 14.1 14.4 5 5 10.1 9.8 15 14.8 4.9 4.9 9.6 9.9 14.5 14.7 6.9 6.7 13.6 13.9 20.8 20.5 6.6 6 12.3 13 19.4 18.5 7 5.5 21.3 5.3 28.6 0 3.5-2.5 6.1-5.6 9.2-8.2 5.2-4.5 9.8-9.6 14.6-14.5 4.8-4.9 9-10.4 14.3-14.7 9.3-7.6 13.2-18.9 9.8-30.4-1.8-6.2-6.4-10-10.7-14.4-5.3-5.6-10.9-10.8-16.3-16.4-4.5-4.7-9.1-8.9-13.6-13.5-5.4-5.5-10.9-10.8-16.3-16.3-4.5-4.6-8.9-9.1-13.5-13.6-5.3-5-10-10.4-15.1-15.5-4.8-4.8-9.8-9.1-14.5-13.9-6.9-7-13.6-14.5-20.7-21.2-6.9-6.5-13.8-13.3-20.5-20.1-8.9-9.1-17.8-18.2-27-27.3-6.3-6.3-12.6-12.8-19-18.9-1.4-1.3-.3-1.1.2-1.8 3.7-5 8.3-8.8 12.6-13.1 7.1-7.1 14.2-14.5 21.3-21.6 6.6-6.6 13.6-13.1 20.2-19.7 7.1-7.1 14.1-14.5 21.2-21.7 7-7.1 14.2-14.2 21.3-21.3 5.2-5.1 10.4-10.1 15.5-15.2 6.5-6.5 13-13.1 19.5-19.6 5.3-5.3 10.4-10.5 15.7-15.8 4.7-4.8 9.4-9.4 14.2-14.1 5.3-5.3 10.3-10.7 15.8-15.7 6.7-6.3 11.2-13.1 10.8-22.5z" fill="#d1d1d0"/><path d="M4 617.1c1.2 1 1.1 2.3 1.1 3.6v37.4c0 1.3.2 2.7-1.1 3.6v-44.6zm1269 44.6c-1.2-1-1.1-2.3-1.1-3.6v-37.4c0-1.3-.2-2.7 1.1-3.6v44.6z" fill="#fff"/><path d="M902.3 439.1c.3 9.4-4.2 16.3-10.9 22.2-5.6 5-10.5 10.4-15.8 15.7-4.8 4.7-9.4 9.4-14.2 14.1-5.3 5.3-10.4 10.5-15.7 15.8-6.5 6.5-13 13.1-19.5 19.6l-15.5 15.2c-7.1 7-14.3 14.2-21.3 21.3-7.1 7.2-14.1 14.6-21.2 21.7-6.6 6.6-13.5 13.1-20.2 19.7-7.1 7.1-14.2 14.5-21.3 21.6-4.3 4.3-9 8.1-12.6 13.1-.5.7-1.6.5-.2 1.8 6.4 6.1 12.7 12.6 19 18.9 9 9 18 18.1 27 27.3 6.6 6.8 13.5 13.6 20.5 20.1 7.2 6.7 13.8 14.3 20.7 21.2 4.8 4.8 9.7 9.1 14.5 13.9 5.2 5.1 9.9 10.5 15.1 15.5 4.7 4.4 9 9 13.5 13.6 5.4 5.5 10.9 10.8 16.3 16.3 4.5 4.6 9.1 8.9 13.6 13.5 5.3 5.6 10.9 10.7 16.3 16.4 4.2 4.5 8.8 8.1 10.7 14.4 3.4 11.4-.5 22.8-9.8 30.4-5.3 4.3-9.5 9.8-14.3 14.7-4.8 4.9-9.4 10-14.6 14.5-3.1 2.7-5.8 5.7-9.2 8.2-7.3 5.3-21.6 5.5-28.6 0-7.1-5.6-12.8-12.5-19.4-18.5-7.2-6.5-13.9-13.7-20.8-20.5-4.9-4.8-9.6-9.8-14.5-14.7-5-5-10.1-9.8-15-14.8-4.7-4.8-9.7-9.2-14.1-14.4-4.6-5.2-9.7-9.8-14.6-14.7-5.1-5.1-10-10.2-15.2-15.2-4.9-4.7-9.6-9.5-14.3-14.3-5.3-5.4-10.7-10.4-15.9-15.9-6.8-7.2-14.1-14.1-21.1-21.1-4.7-4.6-9.4-9-13.8-13.9-2.1-2.3-5-3.6-6.4-6.4-.7-1.2-1.7-.6-2.4.2-7.8 8.6-16.2 16.8-24.5 24.9-8.8 8.6-17.3 17.4-26.3 25.9-7.2 6.8-13.9 14.2-20.9 21.2-6.6 6.6-13.5 13.1-20.1 19.7-7.1 7.1-14.2 14.4-21.3 21.6-4.5 4.6-9 9-13.5 13.5l-22.1 22.1c-4.5 4.5-8.9 9-13.5 13.5-5.5 5.5-11.2 10.6-16.3 16.5-7.1 8.1-22.7 12.3-32.1 7.1-5.6-3.2-10.3-8-14.8-12.8-3-3.3-6.2-6.2-9.3-9.3-4.8-4.8-9.6-9.4-14.2-14.3-2.9-3.1-5.9-6.2-8.7-9.4-6-7-6.2-23.7-.1-30.7 7.6-8.7 16.3-16.3 24.2-24.6 18.4-19.3 37.6-38.1 56.4-57 18.8-18.9 38-37.6 56.8-56.4 9.1-9.1 18-18.4 27.2-27.7 5.5-5.6 10.8-11.2 16.7-16.5 3.4-3.1 1.7-5.1-.6-7.1-8.1-7.4-15.6-15.7-23.4-23.3-7-6.7-14.1-13.6-20.8-20.5-6.7-6.8-13.6-13.6-20.2-20.4-4.9-5.1-10.1-9.8-15-14.8-4.7-4.8-9.7-9.2-14.1-14.4-4.6-5.2-9.7-9.8-14.6-14.8l-15.2-15.2-15.4-15.4-20.6-20.6c-6.3-6.3-12.9-12.5-18.9-19.1-9.8-10.7-10.1-25.4-.4-36.1 6.6-7.3 14.1-14 21-21 4.6-4.6 9.3-9 13.5-13.9 10.5-12.1 24.2-12.6 36.4-6.8 2.6 1.2 4.7 3.9 6.7 6 9.7 10.1 20 19.7 29.8 29.7 8.8 9 17.7 17.9 26.6 27 6.6 6.8 13.7 13.4 20.4 20.1 6.9 7 14 14 20.9 21.1 4.7 4.8 9.3 9.6 14.3 14.1 5.4 4.8 9.9 10.4 15.2 15.5 4.7 4.4 9.1 8.9 13.6 13.5 5 5.3 10.3 10 15.5 15.1 5.1 5.1 10 10.1 15.2 15.1 2.6 2.5 4.3 7.1 8 7 3.4-.1 5.2-4.6 7.6-7 5.1-5 9.9-10.3 15.2-15.1 5.6-5.1 10.9-10.4 16.2-15.8 6.4-6.5 12.9-13.2 19.2-19.7 11.1-11.3 22.4-22.5 33.7-33.7 10.5-10.5 20.9-21.1 31.5-31.4 11.8-11.5 23.3-23.4 35.2-34.8 6.8-6.6 13.8-13.2 20.1-20.5 9.7-11.2 22.8-12.2 34.6-6.7 5.8 2.7 9.5 8.4 14.1 12.8 6.6 6.2 13.1 12.6 19.3 19.1 5.9 6.3 13.6 11.4 15.8 20.6.7 2.7.9 5.2 1.2 7.6z" fill="#07080a"/></svg>