<?xml version="1.0" encoding="utf-8"?>
<svg version="1.1" id="Layer_1"
xmlns="http://www.w3.org/2000/svg"
xmlns:xlink="http://www.w3.org/1999/xlink"
width="363px" height="57px"
xml:space="preserve">
<g id="PathID_1" transform="matrix(0.79631, 0, 0, 0.79631, 47.5, 43.95)" opacity="1">
<path style="fill:#0077BD;fill-opacity:1" d="M4.5 -36.8L25.55 -36.8L25.55 -33.2L8.2 -33.2L8.2 -21.65L25.4 -21.65L25.4 -18.05L8.2 -18.05L8.2 -3.6L25.4 -3.6L25.4 0L4.5 0L4.5 -36.8" />
</g>
<g id="PathID_2" transform="matrix(0.79631, 0, 0, 0.79631, 47.5, 43.95)" opacity="1">
</g>
<g id="PathID_3" transform="matrix(0.79631, 0, 0, 0.79631, 69.35, 43.95)" opacity="1">
<path style="fill:#0077BD;fill-opacity:1" d="M15.15 -37.7L15.15 -34.25Q13.2 -35.1 11.85 -35.1Q10.8 -35.1 10.1 -34.65Q9.45 -34.25 9.25 -33.7Q9.1 -33.2 9.1 -30.85L9.1 -27.2L14.8 -27.2L14.8 -24.15L9.1 -24.15L9.1 0L5.6 0L5.6 -24.15L2 -24.15L2 -27.2L5.6 -27.2L5.6 -31.45Q5.6 -34.35 6.1 -35.6Q6.65 -36.85 7.95 -37.6Q9.25 -38.4 11.05 -38.4Q12.75 -38.4 15.15 -37.7" />
</g>
<g id="PathID_4" transform="matrix(0.79631, 0, 0, 0.79631, 69.35, 43.95)" opacity="1">
</g>
<g id="PathID_5" transform="matrix(0.79631, 0, 0, 0.79631, 82.1, 43.95)" opacity="1">
<path style="fill:#0077BD;fill-opacity:1" d="M15.15 -37.7L15.15 -34.25Q13.2 -35.1 11.85 -35.1Q10.8 -35.1 10.1 -34.65Q9.45 -34.25 9.25 -33.7Q9.1 -33.2 9.1 -30.85L9.1 -27.2L14.8 -27.2L14.8 -24.15L9.1 -24.15L9.1 0L5.6 0L5.6 -24.15L2 -24.15L2 -27.2L5.6 -27.2L5.6 -31.45Q5.6 -34.35 6.1 -35.6Q6.65 -36.85 7.95 -37.6Q9.25 -38.4 11.05 -38.4Q12.75 -38.4 15.15 -37.7" />
</g>
<g id="PathID_6" transform="matrix(0.79631, 0, 0, 0.79631, 82.1, 43.95)" opacity="1">
</g>
<g id="PathID_7" transform="matrix(0.79631, 0, 0, 0.79631, 94.85, 43.95)" opacity="1">
<path style="fill:#0077BD;fill-opacity:1" d="M26.85 -9L29.8 -7.45Q28.3 -4.6 26.4 -2.85Q24.5 -1.1 22.1 -0.2Q19.75 0.7 16.75 0.7Q10.1 0.7 6.35 -3.65Q2.6 -8 2.6 -13.5Q2.6 -18.7 5.75 -22.75Q9.8 -27.9 16.55 -27.9Q23.5 -27.9 27.65 -22.6Q30.65 -18.85 30.7 -13.3L6.2 -13.3Q6.3 -8.55 9.2 -5.55Q12.15 -2.55 16.45 -2.55Q18.55 -2.55 20.5 -3.25Q22.45 -3.95 23.8 -5.15Q25.2 -6.35 26.85 -9M26.85 -16.35Q26.1 -19.15 24.75 -20.8Q23.45 -22.5 21.25 -23.5Q19.05 -24.55 16.6 -24.55Q12.6 -24.55 9.7 -21.95Q7.6 -20.1 6.55 -16.35L26.85 -16.35" />
</g>
<g id="PathID_8" transform="matrix(0.79631, 0, 0, 0.79631, 94.85, 43.95)" opacity="1">
</g>
<g id="PathID_9" transform="matrix(0.79631, 0, 0, 0.79631, 121.35, 43.95)" opacity="1">
<path style="fill:#0077BD;fill-opacity:1" d="M30.3 -21.5L27.5 -19.8Q23.9 -24.6 17.7 -24.6Q12.7 -24.6 9.4 -21.4Q6.15 -18.2 6.15 -13.65Q6.15 -10.65 7.65 -8Q9.15 -5.4 11.8 -3.95Q14.45 -2.55 17.7 -2.55Q23.7 -2.55 27.5 -7.35L30.3 -5.5Q28.3 -2.55 25 -0.9Q21.75 0.7 17.55 0.7Q11.1 0.7 6.85 -3.4Q2.6 -7.5 2.6 -13.35Q2.6 -17.3 4.55 -20.7Q6.55 -24.1 10 -26Q13.5 -27.9 17.8 -27.9Q20.5 -27.9 23 -27.05Q25.55 -26.2 27.3 -24.85Q29.05 -23.55 30.3 -21.5" />
</g>
<g id="PathID_10" transform="matrix(0.79631, 0, 0, 0.79631, 121.35, 43.95)" opacity="1">
</g>
<g id="PathID_11" transform="matrix(0.79631, 0, 0, 0.79631, 147.65, 43.95)" opacity="1">
<path style="fill:#0077BD;fill-opacity:1" d="M7 -37.3L10.5 -37.3L10.5 -27.2L16.05 -27.2L16.05 -24.15L10.5 -24.15L10.5 0L7 0L7 -24.15L2.2 -24.15L2.2 -27.2L7 -27.2L7 -37.3" />
</g>
<g id="PathID_12" transform="matrix(0.79631, 0, 0, 0.79631, 147.65, 43.95)" opacity="1">
</g>
<g id="PathID_13" transform="matrix(0.79631, 0, 0, 0.79631, 162.55, 43.8)" opacity="1">
<path style="fill:#004D7B;fill-opacity:1" d="M3.7 -36.8L10.65 -36.8L10.65 0L3.7 0L3.7 -36.8" />
</g>
<g id="PathID_14" transform="matrix(0.79631, 0, 0, 0.79631, 162.55, 43.8)" opacity="1">
</g>
<g id="PathID_15" transform="matrix(0.79631, 0, 0, 0.79631, 173.95, 43.8)" opacity="1">
<path style="fill:#004D7B;fill-opacity:1" d="M3.45 -27.2L10.3 -27.2L10.3 -24.4Q12.6 -26.35 14.45 -27.1Q16.35 -27.9 18.35 -27.9Q22.4 -27.9 25.2 -25.05Q27.6 -22.65 27.6 -17.95L27.6 0L20.85 0L20.85 -11.9Q20.85 -16.75 20.4 -18.35Q19.95 -19.95 18.85 -20.8Q17.8 -21.65 16.2 -21.65Q14.1 -21.65 12.6 -20.25Q11.15 -18.85 10.55 -16.4Q10.3 -15.15 10.3 -10.9L10.3 0L3.45 0L3.45 -27.2" />
</g>
<g id="PathID_16" transform="matrix(0.79631, 0, 0, 0.79631, 173.95, 43.8)" opacity="1">
</g>
<g id="PathID_17" transform="matrix(0.79631, 0, 0, 0.79631, 198.4, 43.8)" opacity="1">
<path style="fill:#004D7B;fill-opacity:1" d="M20.1 -23.35L15.85 -19.15Q13.3 -21.7 11.2 -21.7Q10.05 -21.7 9.4 -21.2Q8.75 -20.7 8.75 -20Q8.75 -19.45 9.15 -18.95Q9.55 -18.5 11.2 -17.7L13.7 -16.45Q17.65 -14.5 19.1 -12.45Q20.6 -10.45 20.6 -7.75Q20.6 -4.1 17.9 -1.7Q15.25 0.7 10.8 0.7Q4.85 0.7 1.3 -3.95L5.45 -8.55Q6.65 -7.1 8.25 -6.25Q9.9 -5.4 11.15 -5.4Q12.5 -5.4 13.3 -6.05Q14.15 -6.7 14.15 -7.55Q14.15 -9.1 11.15 -10.6L8.85 -11.75Q2.3 -15.1 2.3 -20.1Q2.3 -23.3 4.75 -25.6Q7.25 -27.9 11.15 -27.9Q13.8 -27.9 16.1 -26.7Q18.45 -25.55 20.1 -23.35" />
</g>
<g id="PathID_18" transform="matrix(0.79631, 0, 0, 0.79631, 198.4, 43.8)" opacity="1">
</g>
<g id="PathID_19" transform="matrix(0.79631, 0, 0, 0.79631, 216.35, 43.8)" opacity="1">
<path style="fill:#004D7B;fill-opacity:1" d="M3.45 -27.2L10.35 -27.2L10.35 -14.1Q10.35 -10.25 10.85 -8.75Q11.4 -7.3 12.55 -6.45Q13.7 -5.65 15.4 -5.65Q17.1 -5.65 18.3 -6.45Q19.5 -7.25 20.05 -8.85Q20.5 -10 20.5 -13.85L20.5 -27.2L27.35 -27.2L27.35 -15.65Q27.35 -8.55 26.2 -5.9Q24.85 -2.7 22.15 -1Q19.5 0.7 15.35 0.7Q10.9 0.7 8.1 -1.3Q5.35 -3.3 4.25 -6.85Q3.45 -9.35 3.45 -15.85L3.45 -27.2" />
</g>
<g id="PathID_20" transform="matrix(0.79631, 0, 0, 0.79631, 216.35, 43.8)" opacity="1">
</g>
<g id="PathID_21" transform="matrix(0.79631, 0, 0, 0.79631, 240.8, 43.8)" opacity="1">
<path style="fill:#004D7B;fill-opacity:1" d="M1.85 -27.2L7.75 -27.2L7.75 -23.75Q8.7 -25.75 10.25 -26.8Q11.85 -27.9 13.7 -27.9Q15.05 -27.9 16.5 -27.15L14.35 -21.3Q13.15 -21.9 12.4 -21.9Q10.8 -21.9 9.7 -19.95Q8.65 -18 8.65 -12.3L8.7 -10.95L8.7 0L1.85 0L1.85 -27.2" />
</g>
<g id="PathID_22" transform="matrix(0.79631, 0, 0, 0.79631, 240.8, 43.8)" opacity="1">
</g>
<g id="PathID_23" transform="matrix(0.79631, 0, 0, 0.79631, 253.8, 43.8)" opacity="1">
<path style="fill:#004D7B;fill-opacity:1" d="M23.5 -27.2L30.35 -27.2L30.35 0L23.5 0L23.5 -2.85Q21.5 -0.95 19.45 -0.1Q17.45 0.7 15.1 0.7Q9.85 0.7 6 -3.35Q2.15 -7.45 2.15 -13.55Q2.15 -19.85 5.85 -23.85Q9.6 -27.9 14.9 -27.9Q17.35 -27.9 19.5 -26.95Q21.65 -26.05 23.5 -24.2L23.5 -27.2M16.3 -21.65Q13.1 -21.65 11 -19.4Q8.95 -17.15 8.95 -13.65Q8.95 -10.1 11.05 -7.8Q13.2 -5.55 16.3 -5.55Q19.55 -5.55 21.65 -7.75Q23.8 -10 23.8 -13.65Q23.8 -17.2 21.65 -19.4Q19.55 -21.65 16.3 -21.65" />
</g>
<g id="PathID_24" transform="matrix(0.79631, 0, 0, 0.79631, 253.8, 43.8)" opacity="1">
</g>
<g id="PathID_25" transform="matrix(0.79631, 0, 0, 0.79631, 280.65, 43.8)" opacity="1">
<path style="fill:#004D7B;fill-opacity:1" d="M3.45 -27.2L10.3 -27.2L10.3 -24.4Q12.6 -26.35 14.45 -27.1Q16.35 -27.9 18.35 -27.9Q22.4 -27.9 25.2 -25.05Q27.6 -22.65 27.6 -17.95L27.6 0L20.85 0L20.85 -11.9Q20.85 -16.75 20.4 -18.35Q19.95 -19.95 18.85 -20.8Q17.8 -21.65 16.2 -21.65Q14.1 -21.65 12.6 -20.25Q11.15 -18.85 10.55 -16.4Q10.3 -15.15 10.3 -10.9L10.3 0L3.45 0L3.45 -27.2" />
</g>
<g id="PathID_26" transform="matrix(0.79631, 0, 0, 0.79631, 280.65, 43.8)" opacity="1">
</g>
<g id="PathID_27" transform="matrix(0.79631, 0, 0, 0.79631, 305.1, 43.8)" opacity="1">
<path style="fill:#004D7B;fill-opacity:1" d="M30.1 -21.65L24.4 -18.55Q22.8 -20.2 21.25 -20.85Q19.7 -21.55 17.6 -21.55Q13.8 -21.55 11.45 -19.25Q9.1 -16.95 9.1 -13.4Q9.1 -9.9 11.35 -7.7Q13.6 -5.55 17.3 -5.55Q21.85 -5.55 24.4 -8.7L29.8 -5Q25.4 0.7 17.45 0.7Q10.25 0.7 6.2 -3.55Q2.15 -7.8 2.15 -13.5Q2.15 -17.45 4.1 -20.75Q6.1 -24.1 9.6 -26Q13.15 -27.9 17.55 -27.9Q21.6 -27.9 24.8 -26.25Q28.05 -24.65 30.1 -21.65" />
</g>
<g id="PathID_28" transform="matrix(0.79631, 0, 0, 0.79631, 305.1, 43.8)" opacity="1">
</g>
<g id="PathID_29" transform="matrix(0.79631, 0, 0, 0.79631, 331.2, 43.8)" opacity="1">
<path style="fill:#004D7B;fill-opacity:1" d="M30.7 -11.65L8.75 -11.65Q9.2 -8.7 11.25 -7Q13.3 -5.3 16.5 -5.3Q20.35 -5.3 23.1 -7.95L28.85 -5.25Q26.7 -2.2 23.7 -0.75Q20.7 0.7 16.55 0.7Q10.15 0.7 6.15 -3.3Q2.15 -7.35 2.15 -13.45Q2.15 -19.65 6.15 -23.75Q10.15 -27.9 16.25 -27.9Q22.65 -27.9 26.7 -23.75Q30.75 -19.65 30.75 -12.9L30.7 -11.65M23.9 -17Q23.2 -19.2 21.2 -20.6Q19.2 -22.05 16.55 -22.05Q13.7 -22.05 11.55 -20.45Q10.2 -19.45 9.05 -17L23.9 -17" />
</g>
<g id="PathID_30" transform="matrix(0.79631, 0, 0, 0.79631, 331.2, 43.8)" opacity="1">
</g>
<g id="PathID_31" transform="matrix(1.2, 0, 0, 1.2, 0, 2.95)" opacity="1">
<path style="fill:#004D7B;fill-opacity:1" d="M32.6 8.15L29.6 11.2Q28.95 11.75 28.3 11.75Q27.15 11.75 26.7 10.65Q26.3 9.6 27.1 8.75L30.15 5.65L32.6 5.7Q33.85 6.9 32.6 8.15M20.35 7.4Q19.8 7.9 19.1 7.9Q18.4 7.9 17.85 7.4Q17.35 6.85 17.35 6.15L17.35 1.75Q17.35 1.05 17.85 0.5Q18.4 0 19.1 0Q19.8 0 20.35 0.5Q20.85 1.05 20.85 1.75L20.85 6.15Q20.85 6.85 20.35 7.4M23 22.75Q23 21.65 22 21.65L16.2 21.65Q15.2 21.65 15.15 22.75Q15.15 23.8 16.15 23.85L16.15 32.1Q15.65 32.2 15.35 32.55Q15 32.95 15 33.45L15 37.4Q15 38 15.4 38.4Q15.8 38.8 16.35 38.8L21.85 38.8Q22.4 38.8 22.8 38.4Q23.2 38 23.2 37.4L23.2 33.45Q23.2 32.95 22.85 32.55Q22.55 32.2 22.05 32.1L22.05 23.85Q23.05 23.8 23 22.75M37.65 18.1Q38.15 18.65 38.15 19.35Q38.15 20.1 37.65 20.6Q37.15 21.1 36.45 21.1L32.15 21.1Q31.4 21.1 30.9 20.6Q30.4 20.1 30.4 19.35Q30.4 18.65 30.9 18.1Q31.4 17.6 32.15 17.6L36.45 17.6Q37.15 17.6 37.65 18.1M29.2 19.25Q29.2 22.85 26.45 26.45Q23.55 30.15 23.5 30.9Q24.25 31.3 24.25 32.15L24.25 38.4Q24.25 39 23.85 39.4Q23.45 39.8 22.9 39.8L15.3 39.8Q14.75 39.8 14.35 39.4Q13.95 39 13.95 38.4L13.95 32.15Q13.95 31.3 14.7 30.9Q14.6 29.95 12.85 27.8L10.4 24.55Q7.4 19 10.45 13.95Q13.4 9 19.1 9Q23.3 9 26.25 12Q29.2 15 29.2 19.25M7.3 18.1Q7.8 18.65 7.8 19.35Q7.8 20.1 7.3 20.6Q6.8 21.1 6.05 21.1L1.75 21.1Q1.05 21.1 0.5 20.6Q0 20.1 0 19.35Q0 18.65 0.5 18.1Q1.05 17.6 1.75 17.6L6.05 17.6Q6.8 17.6 7.3 18.1M19.9 23.85L19.9 32.05L18.3 32.05L18.3 23.85L19.9 23.85M11.1 29.95L8.05 33.05Q7.45 33.65 6.6 33.55Q5.7 33.4 5.3 32.6Q4.75 31.4 5.6 30.55L8.65 27.45Q9.2 26.95 9.9 26.95Q10.6 26.95 11.1 27.45Q11.65 28 11.65 28.7Q11.65 29.45 11.1 29.95M32.75 32.8Q31.95 34 30.65 33.4L27.1 29.95Q26.6 29.45 26.6 28.7Q26.6 28 27.1 27.45Q27.6 26.95 28.3 26.95Q29.05 26.95 29.55 27.45L32.6 30.55Q33.6 31.55 32.75 32.8M11.05 11.35Q10.55 11.8 9.85 11.75Q9.15 11.75 8.65 11.25L5.25 7.65Q4.65 6.3 5.85 5.45Q7.05 4.65 8.05 5.65L11 8.65Q11.5 9.2 11.6 9.65L11.6 9.7Q11.8 10.65 11.05 11.35" />
</g>
<g id="PathID_32" transform="matrix(1.2, 0, 0, 1.2, 0, 2.95)" opacity="1">
</g>
</svg>
